<?xml version="1.0" encoding="utf-8"?>
<!-- Generator: Adobe Illustrator 19.2.1, SVG Export Plug-In . SVG Version: 6.00 Build 0)  -->
<svg version="1.1" id="Layer_4" xmlns="http://www.w3.org/2000/svg" xmlns:xlink="http://www.w3.org/1999/xlink" x="0px" y="0px"
	 viewBox="0 0 232.9 82.5" style="enable-background:new 0 0 232.9 82.5;" xml:space="preserve">
<style type="text/css">
	.st0{fill:#E31837;}
	.st1{fill:#FFFFFF;}
</style>
<g>
	<g>
		<path class="st0" d="M26.5,32.5v3.4l0,0c32.9,0,59.5,7.2,59.5,16.2c0,8.9-26.7,16.2-59.5,16.2H18V42.7h8.5v22.1
			c18.8,0,34-5.7,34-12.8c0-7-15.2-12.8-34-12.8H9.6v32.3h16.9V75h68V32.5H26.5z"/>
		<g>
			<path class="st1" d="M119.8,44.4h-13.4V48l13.4,0c6.8,0,11.2,3,11.2,6.6c0,3.6-4.4,6.6-11.2,6.6h-7.6V50.1h-5.9v14.7h13.4
				c10.5,0,17.1-4.8,17.1-10.2C136.9,49.2,130.6,44.4,119.8,44.4z"/>
			<polygon class="st1" points="154.1,44.4 150.3,44.4 148.3,47.8 136.6,64.8 142.9,64.8 145.4,61 147.5,57.6 152.2,50.3 
				156.8,57.6 150,57.6 147.9,61 158.9,61 161.3,64.8 167.6,64.8 			"/>
			<path class="st1" d="M173.2,58.9c2.4,1.6,5.7,2.8,9.4,2.8c4.5,0,7.6-1.1,7.6-3.1c0-4.6-20.5-0.2-20.5-8.5c0-3.6,5.9-6.1,13.2-6.1
				c5.3,0,9.5,1.1,12.7,3.1l-4.4,2.5c-2.9-1.8-5.5-2.4-8.6-2.4c-4.9,0-6.7,1.5-6.7,2.8c0,4.6,20.5,0,20.5,8.5
				c0,4.3-6.7,6.8-14.1,6.8c-4.5,0-9.6-1.1-13.6-3.8L173.2,58.9z"/>
			<polygon class="st1" points="214.7,44.4 210.8,44.4 208.8,47.8 197.2,64.8 203.5,64.8 205.9,61 208,57.6 212.7,50.3 217.3,57.6 
				210.6,57.6 208.4,61 219.4,61 221.8,64.8 228.2,64.8 			"/>
		</g>
	</g>
	<g>
		<path class="st1" d="M16.5,16.4c-0.6,0.2-1.2,0.4-1.9,0.4c-0.8,0-1.5-0.1-2.1-0.4c-0.6-0.3-1.2-0.7-1.6-1.2
			c-0.4-0.5-0.8-1.1-1-1.7c-0.2-0.6-0.3-1.3-0.3-2c0-0.8,0.1-1.5,0.3-2.2c0.2-0.7,0.5-1.3,1-1.9c0.4-0.5,1-1,1.6-1.3
			c0.6-0.3,1.4-0.5,2.2-0.5c0.6,0,1.1,0.1,1.6,0.2c0.5,0.1,1,0.3,1.4,0.6c0.4,0.3,0.7,0.7,1,1.1c0.3,0.4,0.5,1,0.6,1.6h-1.4
			c-0.1-0.4-0.2-0.8-0.4-1.1c-0.2-0.3-0.4-0.5-0.7-0.7c-0.3-0.2-0.6-0.3-1-0.4c-0.4-0.1-0.7-0.1-1.1-0.1c-0.7,0-1.2,0.1-1.7,0.4
			c-0.5,0.3-0.8,0.6-1.1,1c-0.3,0.4-0.5,0.9-0.7,1.5c-0.1,0.5-0.2,1.1-0.2,1.7c0,0.6,0.1,1.1,0.2,1.6c0.2,0.5,0.4,1,0.7,1.4
			c0.3,0.4,0.7,0.7,1.1,0.9c0.5,0.2,1,0.4,1.6,0.4c0.6,0,1.1-0.1,1.5-0.3c0.4-0.2,0.8-0.4,1.1-0.7c0.3-0.3,0.5-0.7,0.7-1.1
			c0.1-0.4,0.2-0.9,0.2-1.4h-3.4v-1.2h4.7v5.6h-0.9l-0.4-1.3C17.7,15.8,17.2,16.2,16.5,16.4z"/>
		<path class="st1" d="M22.4,8.8v1.6h0c0.3-0.6,0.7-1.1,1.1-1.4c0.4-0.3,1-0.4,1.7-0.4V10c-0.5,0-0.9,0.1-1.3,0.2
			c-0.4,0.1-0.6,0.3-0.9,0.6c-0.2,0.3-0.4,0.6-0.5,1c-0.1,0.4-0.1,0.8-0.1,1.3v3.5h-1.3V8.8H22.4z"/>
		<path class="st1" d="M31.5,16.5v-1.2h0c-0.3,0.5-0.6,0.8-1,1.1c-0.4,0.2-0.9,0.3-1.5,0.3c-0.5,0-0.9-0.1-1.3-0.2
			c-0.3-0.1-0.6-0.3-0.8-0.6c-0.2-0.2-0.4-0.5-0.4-0.9c-0.1-0.3-0.1-0.7-0.1-1.1V8.8h1.3V14c0,0.5,0.1,0.9,0.4,1.1
			c0.3,0.3,0.7,0.4,1.2,0.4c0.4,0,0.7-0.1,1-0.2c0.3-0.1,0.5-0.3,0.7-0.5c0.2-0.2,0.3-0.5,0.4-0.8c0.1-0.3,0.1-0.6,0.1-1V8.8h1.3
			v7.8H31.5z"/>
		<path class="st1" d="M35.9,8.8v1h0c0.2-0.4,0.5-0.7,1-0.9c0.5-0.2,0.9-0.3,1.5-0.3c0.6,0,1.1,0.1,1.6,0.3c0.4,0.2,0.8,0.5,1.1,0.9
			c0.3,0.4,0.5,0.8,0.7,1.3c0.1,0.5,0.2,1,0.2,1.6c0,0.6-0.1,1.1-0.2,1.6c-0.1,0.5-0.4,0.9-0.7,1.3c-0.3,0.4-0.7,0.7-1.1,0.9
			c-0.4,0.2-1,0.3-1.6,0.3c-0.2,0-0.4,0-0.6-0.1c-0.2,0-0.5-0.1-0.7-0.2s-0.4-0.2-0.7-0.4c-0.2-0.2-0.4-0.3-0.5-0.6h0v4h-1.3V8.8
			H35.9z M40.5,11.5c-0.1-0.3-0.2-0.7-0.4-0.9c-0.2-0.3-0.4-0.5-0.8-0.6c-0.3-0.2-0.7-0.2-1.1-0.2c-0.4,0-0.8,0.1-1.1,0.3
			c-0.3,0.2-0.5,0.4-0.7,0.7c-0.2,0.3-0.3,0.6-0.4,0.9c-0.1,0.4-0.1,0.7-0.1,1.1c0,0.4,0,0.7,0.1,1.1c0.1,0.4,0.2,0.7,0.4,0.9
			c0.2,0.3,0.4,0.5,0.8,0.7c0.3,0.2,0.7,0.2,1.1,0.2c0.4,0,0.8-0.1,1.1-0.3c0.3-0.2,0.5-0.4,0.7-0.7c0.2-0.3,0.3-0.6,0.4-1
			c0.1-0.4,0.1-0.7,0.1-1.1C40.6,12.2,40.6,11.9,40.5,11.5z"/>
		<path class="st1" d="M43.3,11.1c0.2-0.5,0.4-0.9,0.7-1.3c0.3-0.4,0.7-0.7,1.2-0.9c0.5-0.2,1-0.3,1.6-0.3c0.6,0,1.2,0.1,1.6,0.3
			c0.5,0.2,0.9,0.5,1.2,0.9c0.3,0.4,0.6,0.8,0.7,1.3c0.2,0.5,0.2,1,0.2,1.6c0,0.6-0.1,1.1-0.2,1.6c-0.2,0.5-0.4,0.9-0.7,1.3
			c-0.3,0.4-0.7,0.7-1.2,0.9c-0.5,0.2-1,0.3-1.6,0.3c-0.6,0-1.2-0.1-1.6-0.3c-0.5-0.2-0.9-0.5-1.2-0.9c-0.3-0.4-0.6-0.8-0.7-1.3
			c-0.2-0.5-0.2-1-0.2-1.6C43.1,12.1,43.1,11.6,43.3,11.1z M44.6,13.9c0.1,0.4,0.3,0.7,0.5,0.9c0.2,0.2,0.5,0.4,0.8,0.6
			c0.3,0.1,0.6,0.2,0.9,0.2c0.3,0,0.6-0.1,0.9-0.2c0.3-0.1,0.6-0.3,0.8-0.6c0.2-0.2,0.4-0.5,0.5-0.9c0.1-0.4,0.2-0.8,0.2-1.3
			s-0.1-0.9-0.2-1.3c-0.1-0.4-0.3-0.7-0.5-0.9c-0.2-0.2-0.5-0.4-0.8-0.6c-0.3-0.1-0.6-0.2-0.9-0.2c-0.3,0-0.6,0.1-0.9,0.2
			c-0.3,0.1-0.6,0.3-0.8,0.6c-0.2,0.2-0.4,0.6-0.5,0.9c-0.1,0.4-0.2,0.8-0.2,1.3S44.5,13.6,44.6,13.9z"/>
	</g>
</g>
</svg>
