<?xml version="1.0" encoding="utf-8"?>
<!-- Generator: Adobe Illustrator 21.1.0, SVG Export Plug-In . SVG Version: 6.00 Build 0)  -->
<svg version="1.1" id="Camada_1" xmlns="http://www.w3.org/2000/svg" xmlns:xlink="http://www.w3.org/1999/xlink" x="0px" y="0px"
	 viewBox="0 0 1007 483" style="enable-background:new 0 0 1007 483;" xml:space="preserve">
<style type="text/css">
	.st0{fill:url(#SVGID_1_);}
	.st1{fill:url(#SVGID_2_);}
	.st2{fill:url(#SVGID_3_);}
	.st3{fill:url(#SVGID_4_);}
	.st4{fill:url(#SVGID_5_);}
	.st5{fill:url(#SVGID_6_);}
	.st6{fill:url(#SVGID_7_);}
	.st7{fill:url(#SVGID_8_);}
	.st8{fill:url(#SVGID_9_);}
	.st9{fill:url(#SVGID_10_);}
	.st10{fill:url(#SVGID_11_);}
	.st11{fill:url(#SVGID_12_);}
	.st12{fill:url(#SVGID_13_);}
	.st13{fill:url(#SVGID_14_);}
	.st14{fill:#272C51;}
</style>
<g>
	<linearGradient id="SVGID_1_" gradientUnits="userSpaceOnUse" x1="78.5745" y1="172.0128" x2="113.8391" y2="172.0128">
		<stop  offset="0.1778" style="stop-color:#AA183C"/>
		<stop  offset="0.8973" style="stop-color:#D27D30"/>
	</linearGradient>
	<circle class="st0" cx="96.2" cy="172" r="17.6"/>
	<linearGradient id="SVGID_2_" gradientUnits="userSpaceOnUse" x1="45.0775" y1="449.2543" x2="75.1778" y2="449.2543">
		<stop  offset="0.1778" style="stop-color:#AA183C"/>
		<stop  offset="0.8973" style="stop-color:#D27D30"/>
	</linearGradient>
	<circle class="st1" cx="60.1" cy="449.3" r="15.1"/>
	<linearGradient id="SVGID_3_" gradientUnits="userSpaceOnUse" x1="55.4841" y1="208.6984" x2="151.2206" y2="208.6984">
		<stop  offset="0.1778" style="stop-color:#AA183C"/>
		<stop  offset="0.8973" style="stop-color:#D27D30"/>
	</linearGradient>
	<path class="st2" d="M73.1,231.9c8.2,0,15.1-5.6,17-13.2c0-0.1,0.1-0.1,0.1-0.2c4.3-13.6,23.4-5.2,30.3,0c0,0,0,0,0,0
		c3.2,2.7,7.4,4.3,11.9,4.3c10.3,0,18.7-8.4,18.7-18.7c0-10.3-8.4-18.7-18.7-18.7c-7.9,0-14.7,5-17.4,12c0,0.1-0.1,0.2-0.1,0.3
		c-5.6,13.5-22.7,9-30.7,3c0,0,0,0,0,0c-3-2.5-6.9-4-11.2-4c-9.7,0-17.6,7.9-17.6,17.6C55.5,224.1,63.4,231.9,73.1,231.9z"/>
	<linearGradient id="SVGID_4_" gradientUnits="userSpaceOnUse" x1="27.2984" y1="245.014" x2="185.7883" y2="245.014">
		<stop  offset="0.1778" style="stop-color:#AA183C"/>
		<stop  offset="0.8973" style="stop-color:#D27D30"/>
	</linearGradient>
	<path class="st3" d="M54.4,243.2c-2.7-3.7-7.1-6.1-12.1-6.1c-8.3,0-15.1,6.7-15.1,15.1c0,8.3,6.7,15.1,15.1,15.1
		c3.8,0,7.2-1.4,9.8-3.7c0.1-0.1,0.1-0.1,0.2-0.2c9.5-8.7,83.7-17.3,97.1-4.7c0,0,0.1,0,0.1,0.1c3.8,3.9,9.2,6.4,15.1,6.4
		c11.7,0,21.1-9.5,21.1-21.1c0-11.7-9.5-21.1-21.1-21.1c-7.7,0-14.4,4.1-18.1,10.2c0,0-0.1,0.1-0.1,0.1
		C136.4,245.8,72.2,262.2,54.4,243.2C54.5,243.2,54.5,243.2,54.4,243.2z"/>
	<linearGradient id="SVGID_5_" gradientUnits="userSpaceOnUse" x1="11.429" y1="297.6366" x2="201.3529" y2="297.6366">
		<stop  offset="0.1778" style="stop-color:#AA183C"/>
		<stop  offset="0.8973" style="stop-color:#D27D30"/>
	</linearGradient>
	<path class="st4" d="M176.2,272.5c-6.7,0-12.9,2.7-17.4,7c0,0,0,0,0,0C146,290.3,43,298.3,30.2,282.1c0,0,0,0,0,0
		c-0.7-1.1-1.5-2-2.5-2.7c-1.2-1.1-2.2-1.5-3-1.6c-1-0.3-2-0.5-3.1-0.5c-5.6,0-10.2,4.6-10.2,10.2c0,5.6,4.6,10.2,10.2,10.2
		c2.5,0,4.7-0.9,6.5-2.3c7.3-5.8,116.9-5.1,124.7,11.6c0,0,0,0,0,0c3.7,9.3,12.8,15.9,23.4,15.9c13.9,0,25.2-11.3,25.2-25.2
		C201.4,283.7,190.1,272.5,176.2,272.5z"/>
	<linearGradient id="SVGID_6_" gradientUnits="userSpaceOnUse" x1="9.2092" y1="343.9719" x2="180.7851" y2="343.9719">
		<stop  offset="0.1778" style="stop-color:#AA183C"/>
		<stop  offset="0.8973" style="stop-color:#D27D30"/>
	</linearGradient>
	<path class="st5" d="M159.7,330.2c-4.3,0-8.2,1.3-11.5,3.4c0,0-0.1,0-0.1,0c-15.5,8.3-106.7,0-120.7-14.4c-1-1.2-2.2-2.1-3.5-2.8
		c-0.1,0-0.2-0.1-0.3-0.1c-0.1,0-0.1-0.1-0.2-0.1c-0.3-0.1-0.6-0.2-0.8-0.3c-1-0.3-2-0.5-3.1-0.5c-5.6,0-10.2,4.6-10.2,10.2
		c0,5.6,4.6,10.2,10.2,10.2c1.1,0,2.1-0.2,3.1-0.5c0.3-0.1,0.5-0.2,0.8-0.3c0,0,0.1,0,0.1,0c0,0,0,0,0,0
		c10.1-4.8,107.2,0.7,116.4,23.4c0.1,0.1,0.1,0.2,0.2,0.4c3,8,10.7,13.6,19.7,13.6c11.7,0,21.1-9.5,21.1-21.1
		C180.8,339.6,171.3,330.2,159.7,330.2z"/>
	<linearGradient id="SVGID_7_" gradientUnits="userSpaceOnUse" x1="16.6564" y1="380.8075" x2="148.4915" y2="380.8075">
		<stop  offset="0.1778" style="stop-color:#AA183C"/>
		<stop  offset="0.8973" style="stop-color:#D27D30"/>
	</linearGradient>
	<path class="st6" d="M129.8,372.4c-1,0-1.9,0.1-2.9,0.2c-0.3,0-0.5,0.1-0.8,0.1c0,0,0,0-0.1,0c0,0,0,0,0,0
		c-20.6,4.3-72.1,4.1-85.4-14.6c0,0,0,0,0-0.1c-2.2-3.8-6.4-6.4-11.1-6.4c-7.1,0-12.8,5.8-12.8,12.8c0,7.1,5.8,12.8,12.8,12.8
		c2.5,0,4.9-0.7,6.9-2c0,0,0,0,0,0c12.9-6.6,68.4,2.7,75.6,21.4c0,0,0,0.1,0,0.1c2.4,7.5,9.5,12.9,17.8,12.9
		c10.3,0,18.7-8.4,18.7-18.7C148.5,380.8,140.1,372.4,129.8,372.4z"/>
	<linearGradient id="SVGID_8_" gradientUnits="userSpaceOnUse" x1="33.1037" y1="415.0909" x2="111.1101" y2="415.0909">
		<stop  offset="0.1778" style="stop-color:#AA183C"/>
		<stop  offset="0.8973" style="stop-color:#D27D30"/>
	</linearGradient>
	<path class="st7" d="M93.5,405c-2.4,0-4.6,0.5-6.7,1.3c0,0,0,0-0.1,0c-15.1,4.2-17.3,1.6-26.1-9.8c0,0,0,0,0,0
		c-2.7-4-7.3-6.6-12.5-6.6c-8.3,0-15.1,6.7-15.1,15.1c0,8.3,6.7,15.1,15.1,15.1c3.4,0,6.6-1.2,9.1-3.1c0.1,0,0.1-0.1,0.2-0.1
		c8.3-6.1,17.1-5.7,18.4,5.8c0,9.7,7.9,17.6,17.6,17.6c9.7,0,17.6-7.9,17.6-17.6C111.1,412.9,103.2,405,93.5,405z"/>
	<linearGradient id="SVGID_9_" gradientUnits="userSpaceOnUse" x1="19.9998" y1="20.7119" x2="32.2364" y2="20.7119">
		<stop  offset="0.1778" style="stop-color:#AA183C"/>
		<stop  offset="0.8973" style="stop-color:#D27D30"/>
	</linearGradient>
	<circle class="st8" cx="26.1" cy="20.7" r="6.1"/>
	<linearGradient id="SVGID_10_" gradientUnits="userSpaceOnUse" x1="60.2665" y1="142.0957" x2="159.5359" y2="142.0957">
		<stop  offset="0.1778" style="stop-color:#AA183C"/>
		<stop  offset="0.8973" style="stop-color:#D27D30"/>
	</linearGradient>
	<path class="st9" d="M124.4,152.6C124.4,152.7,124.4,152.7,124.4,152.6c0.8,7.4,6.2,13.7,13.8,15.4c9.5,2.1,18.9-3.9,21-13.4
		c2.1-9.5-3.9-18.9-13.4-21c-3.4-0.7-6.7-0.4-9.8,0.7c0,0-0.1,0-0.1,0c-16.1,3.9-37.7,7.2-47.1-10.3c0,0,0,0,0,0
		c0-0.1-0.1-0.1-0.1-0.2c-0.2-0.3-0.3-0.5-0.5-0.8c-0.1-0.2-0.2-0.3-0.3-0.5c-0.2-0.3-0.4-0.5-0.5-0.8c-2.1-2.8-5.1-4.9-8.8-5.7
		c-8.1-1.8-16.1,3.4-17.9,11.5c-1.8,8.1,3.4,16.1,11.5,17.9c4.6,1,9.1-0.2,12.5-2.9C95.4,135.5,121.9,139.7,124.4,152.6z"/>
	<linearGradient id="SVGID_11_" gradientUnits="userSpaceOnUse" x1="42.2339" y1="116.731" x2="202.7639" y2="116.731">
		<stop  offset="0.1778" style="stop-color:#AA183C"/>
		<stop  offset="0.8973" style="stop-color:#D27D30"/>
	</linearGradient>
	<path class="st10" d="M186.2,105.4c-5.1-1.1-10.2-0.3-14.4,2c0,0,0,0,0,0C151.3,116.1,71.8,94,61.6,88.1c0,0,0,0-0.1,0
		c-1.1-0.7-2.4-1.2-3.8-1.5c-6.9-1.5-13.8,2.9-15.3,9.8c-1.5,6.9,2.9,13.8,9.8,15.3c5.3,1.2,10.5-1.1,13.4-5.4c0,0,0,0,0,0
		c14.3-16.4,90,10.5,95.6,25.5c0,0,0,0,0,0c2.1,7.2,7.9,13.1,15.8,14.8c11.4,2.5,22.7-4.7,25.2-16.1
		C204.8,119.1,197.6,107.9,186.2,105.4z"/>
	<linearGradient id="SVGID_12_" gradientUnits="userSpaceOnUse" x1="29.24" y1="72.9658" x2="111.2067" y2="72.9658">
		<stop  offset="0.1778" style="stop-color:#AA183C"/>
		<stop  offset="0.8973" style="stop-color:#D27D30"/>
	</linearGradient>
	<path class="st11" d="M43.1,80.3c0.4-0.2,0.8-0.3,1.2-0.6c13.2-5.6,45.7-3.8,66.9,5.6C86.9,74.5,75.7,72.6,68.8,71.5
		c-6.7-1.1-14.3-1.4-22.7-8.3C46,63,45.9,63,45.8,62.9c-0.1,0-0.1-0.1-0.2-0.1c0,0-0.1-0.1-0.1-0.1c-0.1-0.1-0.2-0.1-0.2-0.2
		c-0.4-0.3-0.8-0.6-1.2-0.7c-0.8-0.4-1.6-0.7-2.4-0.9c-5.5-1.2-10.9,2.3-12.1,7.8c-1.2,5.5,2.3,10.9,7.8,12.1c1.5,0.3,3,0.3,4.5,0
		C42.1,80.7,42.6,80.5,43.1,80.3C43.1,80.3,43.1,80.3,43.1,80.3z"/>
	<linearGradient id="SVGID_13_" gradientUnits="userSpaceOnUse" x1="21.1643" y1="44.1767" x2="71.6471" y2="44.1767">
		<stop  offset="0.1778" style="stop-color:#AA183C"/>
		<stop  offset="0.8973" style="stop-color:#D27D30"/>
	</linearGradient>
	<path class="st12" d="M21.4,42.5c-0.9,4.3,1.8,8.6,6.1,9.5c2.9,0.6,5.8-0.4,7.7-2.5c0,0,0,0,0,0c4.6-3.1,22.2-3.3,36.5,0.1
		c-13.2-5.1-29.8-4.2-36.6-10.9c0,0,0,0,0,0c-1.1-1.2-2.5-2-4.2-2.4C26.6,35.4,22.3,38.1,21.4,42.5z"/>
</g>
<g>
	<g>
		<g>
			
				<linearGradient id="SVGID_14_" gradientUnits="userSpaceOnUse" x1="759.6667" y1="359.0865" x2="932.4594" y2="146.1093" gradientTransform="matrix(1 0 0 1 0 -14)">
				<stop  offset="0.1778" style="stop-color:#AA183C"/>
				<stop  offset="0.8973" style="stop-color:#D27D30"/>
			</linearGradient>
			<path class="st13" d="M977.2,268.6h-54.8l0-15.5c0.4-4.2,2-6.9,4.6-8c5.8-2.3,14.2,4.7,14.3,4.8l0.2,0.2c2.3,2.1,5.2,3.2,8.3,3.2
				c6.8,0,12.4-5.6,12.4-12.4c0-6.8-5.6-12.4-12.4-12.4c-2.6,0-5,0.8-7.1,2.3c-0.5,0.3-0.9,0.6-1.3,1c-1.9,1.8-11.5,10.2-16.4,8.1
				c-1.7-0.8-2.6-2.6-2.6-5.5v-21.8h54.9c8.5-0.2,12.4-4.2,12.4-12.7c-0.1-8-3.7-11.7-11.4-11.8l-68.2-0.2
				c-8.3,0.2-12.2,4.1-12.2,12.4v81.2c0.1,8.1,3.9,11.8,12.2,11.8h67.4c8.2-0.1,12.1-4,12.1-12.1
				C989.6,272.6,985.6,268.7,977.2,268.6z M756,194.7c-8.4-4.5-17.1-6.8-25.9-6.8c-8.8,0-17.6,2.3-26,6.8
				c-8.4,4.5-15,11.1-19.6,19.5c-4.7,8.4-7,17.3-7,26.4c0,9.1,2.3,17.9,7,26.2c4.6,8.3,11.2,14.9,19.5,19.5c8.3,4.6,17.2,7,26.2,7
				c9.1,0,18-2.3,26.4-7c8.3-4.6,14.9-11.2,19.5-19.5c4.6-8.3,7-17.2,7-26.2c0-9.1-2.4-18-7.2-26.4C771,205.8,764.4,199.3,756,194.7
				z M754.8,254.6c-2.5,4.5-6,8-10.5,10.4c-4.5,2.4-9.2,3.7-14,3.7c-4.9,0-9.6-1.2-14.1-3.7c-4.5-2.5-8-6-10.5-10.4
				c-2.5-4.4-3.7-9.2-3.7-14.1c0-4.9,1.3-9.7,3.8-14.2c2.5-4.5,6.1-8,10.6-10.4c8.8-4.7,18.7-4.8,27.8,0c4.5,2.4,8.1,5.9,10.6,10.4
				c2.5,4.5,3.8,9.3,3.8,14.2C758.5,245.4,757.2,250.1,754.8,254.6z M871.2,188c-6.8,0.2-10.1,3.5-10.2,10.6v48.8l-42.6-54.3
				c-2.7-3-6.2-4.7-10.8-5.1c-14,0.1-14,7.9-14,10.5v84.1c0,2.6,0.1,10.6,14.1,10.6c7.1-0.1,10.4-3.4,10.5-10.5v-48.7l42.7,54.1
				c2.7,3.4,6.1,5,10.3,5.1c9.5-0.1,14.1-3.5,14.2-10.5l-0.1-83.8C885.2,191.7,880.6,188.2,871.2,188z"/>
		</g>
	</g>
	<g>
		<path class="st14" d="M352.7,228.3l-27-0.1c-8.3,0.1-12.2,4-12.2,12.4c0,4,1,7,3,9c2,2,5.2,3,9.4,3h13.3l-0.8,1.8
			c-2.3,4.9-6,8.6-11,10.9c-9.9,4.6-20,4.6-28.8-0.3c-4.5-2.5-8-6-10.5-10.4c-2.5-4.4-3.7-9.2-3.7-14.1c0-4.9,1.3-9.7,3.8-14.2
			c2.5-4.5,6.1-8,10.6-10.4c4.5-2.4,9.1-3.6,13.9-3.6l26.9-0.2c4,0.1,7.1-0.9,9-2.8c2-1.9,3-5,3-9.1c-0.1-8.4-3.9-12.3-12.1-12.4
			l-27.1,0.1c-8.8,0-17.6,2.3-26,6.8c-8.4,4.5-15,11.1-19.6,19.5c-4.7,8.4-7,17.3-7,26.4c0,9.1,2.3,17.9,7,26.2
			c4.6,8.3,11.2,14.9,19.5,19.5c8.3,4.6,17.2,7,26.2,7c9.1,0,18-2.3,26.4-7c8.3-4.6,14.9-11.2,19.5-19.5c4.6-8.3,7-17.2,7-26.2
			C365.2,232.5,361.1,228.5,352.7,228.3z"/>
		<path class="st14" d="M554.5,188c-6.8,0.2-10.1,3.5-10.2,10.6v48.8l-42.6-54.3c-2.7-3-6.2-4.7-10.8-5.1c-14,0.1-14,7.9-14,10.5
			v84.1c0,2.6,0.1,10.6,14.1,10.6c7.1-0.1,10.4-3.4,10.5-10.5v-48.7l42.7,54.1c2.7,3.4,6.1,5,10.3,5.1c9.5-0.1,14.1-3.5,14.2-10.5
			l-0.1-83.8C568.5,191.7,563.9,188.2,554.5,188z"/>
		<path class="st14" d="M454,212.5c8.5-0.2,12.4-4.2,12.4-12.7c-0.1-8-3.7-11.7-11.4-11.8l-68.2-0.2c-8.3,0.2-12.2,4.1-12.2,12.4
			v81.2c0.1,8.1,3.9,11.8,12.2,11.8h67.4c8.2-0.1,12.1-4,12.1-12.1c0-8.4-3.9-12.3-12.3-12.4h-54.8l0-15.5c0.4-4.2,2-6.9,4.6-8
			c5.8-2.3,14.2,4.7,14.3,4.8l0.3,0.2c2.3,2,5.2,3.1,8.2,3.1c6.8,0,12.4-5.6,12.4-12.4c0-6.8-5.6-12.4-12.4-12.4
			c-2.6,0-5,0.8-7.1,2.3c-0.5,0.3-0.9,0.6-1.3,1c-1.9,1.8-11.5,10.2-16.4,8.1c-1.7-0.8-2.6-2.6-2.6-5.5v-21.8H454z"/>
		<path class="st14" d="M660.6,212.5c8.5-0.2,12.4-4.2,12.4-12.7c-0.1-8-3.7-11.7-11.4-11.8l-68.2-0.2c-8.3,0.2-12.2,4.1-12.2,12.4
			v81.2c0.1,8.1,3.9,11.8,12.2,11.8h67.4c8.2-0.1,12.1-4,12.1-12.1c0-8.4-3.9-12.3-12.3-12.4h-54.8l0-15.5c0.4-4.2,2-6.9,4.6-8
			c5.8-2.3,14.2,4.7,14.3,4.8l0.2,0.2c2.3,2.1,5.3,3.2,8.3,3.2c6.8,0,12.4-5.6,12.4-12.4c0-6.8-5.6-12.4-12.4-12.4
			c-2.6,0-5,0.8-7.1,2.3c-0.5,0.3-0.9,0.6-1.3,1c-1.9,1.8-11.5,10.2-16.4,8.1c-1.7-0.8-2.6-2.6-2.6-5.5v-21.8H660.6z"/>
	</g>
</g>
</svg>
