<?xml version="1.0" encoding="utf-8"?>
<!-- Generator: Adobe Illustrator 21.1.0, SVG Export Plug-In . SVG Version: 6.00 Build 0)  -->
<svg version="1.1" id="Camada_1" xmlns="http://www.w3.org/2000/svg" xmlns:xlink="http://www.w3.org/1999/xlink" x="0px" y="0px"
	 viewBox="0 0 408 312" style="enable-background:new 0 0 408 312;" xml:space="preserve">
<style type="text/css">
	.st0{fill:none;}
	.st1{clip-path:url(#SVGID_2_);fill:none;stroke:#E5E5DB;stroke-miterlimit:10;}
	.st2{clip-path:url(#SVGID_5_);fill:none;stroke:#E5E5DB;stroke-miterlimit:10;}
	.st3{clip-path:url(#SVGID_7_);fill:none;stroke:#E5E5DB;stroke-miterlimit:10;}
	.st4{clip-path:url(#SVGID_9_);fill:none;stroke:#E5E5DB;stroke-miterlimit:10;}
	.st5{clip-path:url(#SVGID_11_);fill:none;stroke:#E5E5DB;stroke-miterlimit:10;}
	.st6{clip-path:url(#SVGID_13_);fill:none;stroke:#E5E5DB;stroke-miterlimit:10;}
	.st7{clip-path:url(#SVGID_15_);fill:none;stroke:#E5E5DB;stroke-miterlimit:10;}
	.st8{clip-path:url(#SVGID_17_);fill:none;stroke:#E5E5DB;stroke-miterlimit:10;}
	.st9{clip-path:url(#SVGID_19_);fill:none;stroke:#E5E5DB;stroke-miterlimit:10;}
	.st10{fill:#394668;}
	.st11{opacity:8.000000e-02;fill:url(#SVGID_20_);enable-background:new    ;}
</style>
<pattern  y="312" width="92.5" height="90.9" patternUnits="userSpaceOnUse" id="SVGID_3_" viewBox="60.6 -130.6 92.5 90.9" style="overflow:visible;">
	<g>
		<rect x="60.6" y="-130.6" class="st0" width="92.5" height="90.9"/>
		<g>
			<rect x="60.6" y="-130.6" class="st0" width="92.5" height="90.9"/>
			<g>
				<g>
					<defs>
						<rect id="SVGID_1_" x="60.6" y="-130.6" width="92.5" height="90.9"/>
					</defs>
					<clipPath id="SVGID_2_">
						<use xlink:href="#SVGID_1_"  style="overflow:visible;"/>
					</clipPath>
					<path class="st1" d="M116.7-109.6c0,5.1,2.6,9.7,6.6,12.3l0,0c3.8,2.6,6.4,6.9,6.5,11.9v0.2l0,0c0,5.1-2.6,9.6-6.5,12.2l0,0
						c-4,2.6-6.6,7.2-6.6,12.3c0,8.1,6.6,14.7,14.7,14.7s14.7-6.6,14.7-14.7c0-5.1-2.6-9.7-6.6-12.3l0,0c-3.8-2.6-6.4-7-6.5-11.9
						v-0.2l0,0c0-5.1,2.6-9.6,6.5-12.2l0,0c4-2.6,6.6-7.2,6.6-12.3c0-8.1-6.6-14.7-14.7-14.7S116.7-117.7,116.7-109.6z"/>
				</g>
				<g>
					<defs>
						<rect id="SVGID_4_" x="60.6" y="-130.6" width="92.5" height="90.9"/>
					</defs>
					<clipPath id="SVGID_5_">
						<use xlink:href="#SVGID_4_"  style="overflow:visible;"/>
					</clipPath>
					<path class="st2" d="M70.8-155.1c0,5.1,2.6,9.7,6.6,12.3l0,0c3.8,2.6,6.4,6.9,6.5,11.9v0.2l0,0c0,5.1-2.6,9.6-6.5,12.2l0,0
						c-4,2.6-6.6,7.2-6.6,12.3c0,8.1,6.6,14.7,14.7,14.7s14.7-6.6,14.7-14.7c0-5.1-2.6-9.7-6.6-12.3l0,0c-3.8-2.6-6.4-7-6.5-11.9
						v-0.2l0,0c0-5.1,2.6-9.6,6.5-12.2l0,0c4-2.6,6.6-7.2,6.6-12.3c0-8.1-6.6-14.7-14.7-14.7S70.8-163.2,70.8-155.1z"/>
				</g>
				<g>
					<defs>
						<rect id="SVGID_6_" x="60.6" y="-130.6" width="92.5" height="90.9"/>
					</defs>
					<clipPath id="SVGID_7_">
						<use xlink:href="#SVGID_6_"  style="overflow:visible;"/>
					</clipPath>
					<path class="st3" d="M70.8-64.1c0,5.1,2.6,9.7,6.6,12.3l0,0c3.8,2.6,6.4,6.9,6.5,11.9v0.2l0,0c0,5.1-2.6,9.6-6.5,12.2l0,0
						c-4,2.6-6.6,7.2-6.6,12.3c0,8.1,6.6,14.7,14.7,14.7s14.7-6.6,14.7-14.7c0-5.1-2.6-9.7-6.6-12.3l0,0c-3.8-2.6-6.4-7-6.5-11.9
						v-0.2l0,0c0-5.1,2.6-9.6,6.5-12.2l0,0c4-2.6,6.6-7.2,6.6-12.3c0-8.1-6.6-14.7-14.7-14.7S70.8-72.3,70.8-64.1z"/>
				</g>
				<g>
					<defs>
						<rect id="SVGID_8_" x="60.6" y="-130.6" width="92.5" height="90.9"/>
					</defs>
					<clipPath id="SVGID_9_">
						<use xlink:href="#SVGID_8_"  style="overflow:visible;"/>
					</clipPath>
					<path class="st4" d="M109.6-99.9c-5.1,0-9.7,2.6-12.3,6.6l0,0c-2.6,3.8-6.9,6.4-11.9,6.5h-0.2l0,0c-5.1,0-9.6-2.6-12.2-6.5l0,0
						c-2.6-4-7.2-6.6-12.3-6.6c-8.1,0-14.7,6.6-14.7,14.7s6.6,14.7,14.7,14.7c5.1,0,9.7-2.6,12.3-6.6l0,0c2.6-3.8,7-6.4,11.9-6.5
						h0.2l0,0c5.1,0,9.6,2.6,12.2,6.5l0,0c2.6,4,7.2,6.6,12.3,6.6c8.1,0,14.7-6.6,14.7-14.7S117.8-99.9,109.6-99.9z"/>
				</g>
				<g>
					<defs>
						<rect id="SVGID_10_" x="60.6" y="-130.6" width="92.5" height="90.9"/>
					</defs>
					<clipPath id="SVGID_11_">
						<use xlink:href="#SVGID_10_"  style="overflow:visible;"/>
					</clipPath>
					<path class="st5" d="M202.2-99.9c-5.1,0-9.7,2.6-12.3,6.6l0,0c-2.6,3.8-6.9,6.4-11.9,6.5h-0.2l0,0c-5.1,0-9.6-2.6-12.2-6.5l0,0
						c-2.6-4-7.2-6.6-12.3-6.6c-8.1,0-14.7,6.6-14.7,14.7s6.6,14.7,14.7,14.7c5.1,0,9.7-2.6,12.3-6.6l0,0c2.6-3.8,7-6.4,11.9-6.5
						h0.2l0,0c5.1,0,9.6,2.6,12.2,6.5l0,0c2.6,4,7.2,6.6,12.3,6.6c8.1,0,14.7-6.6,14.7-14.7S210.3-99.9,202.2-99.9z"/>
				</g>
				<g>
					<defs>
						<rect id="SVGID_12_" x="60.6" y="-130.6" width="92.5" height="90.9"/>
					</defs>
					<clipPath id="SVGID_13_">
						<use xlink:href="#SVGID_12_"  style="overflow:visible;"/>
					</clipPath>
					<path class="st6" d="M155.9-145.3c-5.1,0-9.7,2.6-12.3,6.6l0,0c-2.6,3.8-6.9,6.4-11.9,6.5h-0.2l0,0c-5.1,0-9.6-2.6-12.2-6.5
						l0,0c-2.6-4-7.2-6.6-12.3-6.6c-8.1,0-14.7,6.6-14.7,14.7s6.6,14.7,14.7,14.7c5.1,0,9.7-2.6,12.3-6.6l0,0
						c2.6-3.8,7-6.4,11.9-6.5h0.2l0,0c5.1,0,9.6,2.6,12.2,6.5l0,0c2.6,4,7.2,6.6,12.3,6.6c8.1,0,14.7-6.6,14.7-14.7
						S164.1-145.3,155.9-145.3z"/>
				</g>
				<g>
					<defs>
						<rect id="SVGID_14_" x="60.6" y="-130.6" width="92.5" height="90.9"/>
					</defs>
					<clipPath id="SVGID_15_">
						<use xlink:href="#SVGID_14_"  style="overflow:visible;"/>
					</clipPath>
					<path class="st7" d="M155.9-54.4c-5.1,0-9.7,2.6-12.3,6.6l0,0c-2.6,3.8-6.9,6.4-11.9,6.5h-0.2l0,0c-5.1,0-9.6-2.6-12.2-6.5l0,0
						c-2.6-4-7.2-6.6-12.3-6.6c-8.1,0-14.7,6.6-14.7,14.7S98.9-25,107-25c5.1,0,9.7-2.6,12.3-6.6l0,0c2.6-3.8,7-6.4,11.9-6.5h0.2
						l0,0c5.1,0,9.6,2.6,12.2,6.5l0,0c2.6,4,7.2,6.6,12.3,6.6c8.1,0,14.7-6.6,14.7-14.7S164.1-54.4,155.9-54.4z"/>
				</g>
				<g>
					<defs>
						<rect id="SVGID_16_" x="60.6" y="-130.6" width="92.5" height="90.9"/>
					</defs>
					<clipPath id="SVGID_17_">
						<use xlink:href="#SVGID_16_"  style="overflow:visible;"/>
					</clipPath>
					<path class="st8" d="M64.2-145.3c-5.1,0-9.7,2.6-12.3,6.6l0,0c-2.6,3.8-6.9,6.4-11.9,6.5h-0.2l0,0c-5.1,0-9.6-2.6-12.2-6.5l0,0
						c-2.6-4-7.2-6.6-12.3-6.6c-8.2,0-14.8,6.6-14.8,14.7c0,8.1,6.6,14.7,14.7,14.7c5.1,0,9.7-2.6,12.3-6.6l0,0
						c2.6-3.8,7-6.4,11.9-6.5h0.2l0,0c5.1,0,9.6,2.6,12.2,6.5l0,0c2.6,4,7.2,6.6,12.3,6.6c8.1,0,14.7-6.6,14.7-14.7
						C78.8-138.7,72.3-145.3,64.2-145.3z"/>
				</g>
				<g>
					<defs>
						<rect id="SVGID_18_" x="60.6" y="-130.6" width="92.5" height="90.9"/>
					</defs>
					<clipPath id="SVGID_19_">
						<use xlink:href="#SVGID_18_"  style="overflow:visible;"/>
					</clipPath>
					<path class="st9" d="M64.2-54.4c-5.1,0-9.7,2.6-12.3,6.6l0,0C49.3-44,45-41.4,40-41.3h-0.2l0,0c-5.1,0-9.6-2.6-12.2-6.5l0,0
						c-2.6-4-7.2-6.6-12.3-6.6c-8.1,0-14.7,6.6-14.7,14.7S7.2-25,15.3-25c5.1,0,9.7-2.6,12.3-6.6l0,0c2.6-3.8,7-6.4,11.9-6.5h0.2
						l0,0c5.1,0,9.6,2.6,12.2,6.5l0,0c2.6,4,7.2,6.6,12.3,6.6c8.1,0,14.7-6.6,14.7-14.7S72.3-54.4,64.2-54.4z"/>
				</g>
			</g>
		</g>
	</g>
</pattern>
<g id="Camada_4">
	<rect x="-7" y="-4" class="st10" width="423" height="321"/>
</g>
<pattern  id="SVGID_20_" xlink:href="#SVGID_3_" patternTransform="matrix(1.1206 0 0 1.1206 1846.3042 710.7736)">
</pattern>
<rect x="0.4" y="0.3" class="st11" width="407.7" height="311.6"/>
</svg>
